HIERARCHY
ROOT hip
{
	OFFSET 0.000000 0.000000 0.000000 
	CHANNELS 6 Xposition Yposition Zposition Xrotation Zrotation Yrotation
	JOINT abdomen
	{
		OFFSET 0.000000 3.402643 0.000000 
		CHANNELS 3 Xrotation Zrotation Yrotation
		JOINT chest
		{
			OFFSET 0.000000 8.438565 -0.680529 
			CHANNELS 3 Xrotation Zrotation Yrotation
			JOINT neck
			{
				OFFSET 0.000000 10.207942 -0.272212 
				CHANNELS 3 Xrotation Zrotation Yrotation
				JOINT head
				{
					OFFSET 0.000000 3.130431 0.000000 
					CHANNELS 3 Xrotation Zrotation Yrotation
					End Site
					{
						OFFSET 0.000000 3.130435 0.000000 
					}
				}
			}
			JOINT lCollar
			{
				OFFSET 3.470700 6.669187 -0.816635 
				CHANNELS 3 Yrotation Zrotation Xrotation
				JOINT lShldr
				{
					OFFSET 3.198488 0.000000 0.000000 
					CHANNELS 3 Zrotation Yrotation Xrotation
					JOINT lForeArm
					{
						OFFSET 10.139888 0.000000 0.000000 
						CHANNELS 3 Yrotation Zrotation Xrotation
						JOINT lHand
						{
							OFFSET 8.370511 0.000000 0.000000 
							CHANNELS 3 Zrotation Yrotation Xrotation
							End Site
							{
								OFFSET 4.083176 0.000000 0.000000 
							}
						}
					}
				}
			}
			JOINT rCollar
			{
				OFFSET -3.470700 6.669187 -0.816635 
				CHANNELS 3 Yrotation Zrotation Xrotation
				JOINT rShldr
				{
					OFFSET -3.198488 0.000000 0.000000 
					CHANNELS 3 Zrotation Yrotation Xrotation
					JOINT rForeArm
					{
						OFFSET -10.139888 0.000000 0.000000 
						CHANNELS 3 Yrotation Zrotation Xrotation
						JOINT rHand
						{
							OFFSET -8.370511 0.000000 0.000000 
							CHANNELS 3 Zrotation Yrotation Xrotation
							End Site
							{
								OFFSET -4.083176 0.000000 0.000000 
							}
						}
					}
				}
			}
		}
	}
	JOINT lThigh
	{
		OFFSET 5.308129 -1.633274 1.361059 
		CHANNELS 3 Xrotation Zrotation Yrotation
		JOINT lShin
		{
			OFFSET -2.041588 -20.007561 0.000000 
			CHANNELS 3 Xrotation Zrotation Yrotation
			JOINT lFoot
			{
				OFFSET 0.000000 -19.190928 -1.224953 
				CHANNELS 3 Xrotation Yrotation Zrotation
				End Site
				{
					OFFSET 0.000000 -2.449906 4.627600 
				}
			}
		}
	}
	JOINT rThigh
	{
		OFFSET -5.308129 -1.633274 1.361059 
		CHANNELS 3 Xrotation Zrotation Yrotation
		JOINT rShin
		{
			OFFSET 2.041588 -20.007561 0.000000 
			CHANNELS 3 Xrotation Zrotation Yrotation
			JOINT rFoot
			{
				OFFSET 0.000000 -19.190928 -1.224953 
				CHANNELS 3 Xrotation Yrotation Zrotation
				End Site
				{
					OFFSET 0.000000 -2.449906 4.627600 
				}
			}
		}
	}
}
MOTION
Frames: 6
Frame Time: 0.033333
-4.130640 45.321396 0.730681 -10.945771 -3.269628 139.527985 0.000000 0.000000 0.000000 4.596787 9.676399 8.626296 24.379669 -26.097235 -2.099469 -39.337368 8.749873 17.900991 43.932243 30.000000 -2.753415 4.132811 -12.309536 -21.830090 -23.640162 18.265745 -21.069645 25.442213 -3.862460 -6.527045 13.452914 -19.646908 25.000000 45.193947 52.536541 90.275665 -0.585879 -12.242763 -83.471024 -0.228391 -16.494627 -49.978352 -21.233980 12.267766 19.710936 89.788597 23.181425 1.936382 -5.510245 1.161092 5.185283 -21.304808 -4.735431 0.484673 55.914371 12.852597 7.050981 -9.816854 -8.797204 23.777481 
-3.075683 46.306152 1.217034 -13.496146 -2.165137 151.994110 0.000000 0.000000 0.000000 0.276077 7.929597 8.291023 26.516214 -23.220362 -1.866734 -38.377075 8.634987 17.159742 43.431625 29.967506 -2.063014 3.538543 -17.731762 -21.219860 -21.236210 17.000870 -29.161749 26.274996 -2.385029 -6.196519 11.273555 -22.926176 25.000000 31.191902 54.881802 80.688293 -2.052107 -9.806514 -95.957657 -1.251335 -19.072483 -50.887928 -26.677511 11.053025 18.509743 83.152184 21.972851 1.731303 -3.499620 -1.299622 -0.179574 -18.718576 -4.540546 0.438938 49.402050 16.358751 7.213593 -5.980855 -15.321106 26.121576 
-1.860774 47.688534 1.441183 -13.281310 0.171080 165.037735 0.000000 0.000000 0.000000 -0.705594 4.794560 7.558414 28.481054 -20.181923 -1.637739 -38.145172 7.638399 16.830915 41.678391 29.341383 -0.261283 2.536290 -24.246578 -20.558846 -18.627817 15.671681 -31.165293 24.159309 -4.140739 -7.015354 8.305933 -26.717396 25.000000 20.063030 50.355679 74.076118 -4.833642 -7.300190 -100.286552 -4.217025 -19.642899 -52.904079 -27.965710 9.079723 17.678253 73.373024 19.659088 1.370985 -3.135030 -5.915030 5.605030 -15.048368 -4.609208 0.262082 45.257793 17.568850 7.089697 2.833740 -17.729891 29.611271 
-1.079870 49.204380 1.410325 165.445328 178.686127 -3.358585 0.000000 0.000000 0.000000 -2.999684 1.891937 6.922415 30.487352 -19.847752 -1.628124 -38.103764 7.268897 16.717173 38.525852 28.088373 2.870762 -2.266080 -29.958939 -18.449533 -20.429571 13.678178 -30.352125 26.463213 -7.141187 -8.898640 4.051834 -30.000000 25.000000 12.453855 43.257587 70.468338 -5.132504 -4.286420 -104.953209 -3.297132 -20.307745 -53.434162 -29.118383 5.809240 16.462210 62.999260 14.631997 0.545384 3.055621 -12.055803 14.151537 -17.378944 -8.103836 -0.698092 47.947968 19.111057 7.708381 16.896034 -10.142766 32.099945 
-0.323476 50.581375 1.295184 164.695511 175.864395 5.187891 0.000000 0.000000 0.000000 -4.698088 1.070610 6.757739 33.048798 -21.274799 -1.761290 -38.211239 7.820109 17.846294 37.042328 24.960804 5.869449 -8.648075 -37.213562 -15.618199 -20.829119 11.554193 -30.251829 24.049919 -7.813231 -10.187635 1.561921 -30.000000 24.839884 5.510441 34.302418 67.568199 -4.529950 -2.721232 -109.211433 -2.320740 -20.451023 -53.866753 -28.302076 5.308008 16.444996 54.553509 7.701674 -0.664795 8.253147 -5.741083 10.754598 -20.944216 -9.491019 -0.960456 55.981453 15.760694 7.714111 33.954754 6.752547 30.309353 
0.349131 51.412540 0.804192 -13.427648 7.183132 -165.986069 0.000000 0.000000 0.000000 -4.960989 0.262684 6.578762 35.579113 -20.752163 -1.728346 -38.635696 7.089709 20.220392 34.888206 22.803520 8.500228 -18.320728 -44.178551 -11.078965 -19.314981 10.074362 -24.365770 19.366964 -7.294534 -10.564983 -2.695441 -30.000000 22.304697 -2.421236 24.397497 63.728268 -3.169426 -3.556151 -110.832024 -3.777433 -20.671555 -55.232731 -23.927780 5.161285 17.024433 48.806240 0.582046 -2.003295 11.332518 4.525142 13.859019 -21.754238 -9.822935 -1.024717 69.120041 11.923248 8.047072 36.525276 10.001353 17.695303 
